<svg data-name="Layer 1" xmlns="http://www.w3.org/2000/svg" viewBox="0 0 50 50"><title>Social_Icons</title><circle cx="25" cy="25" r="25" fill="#dddfe2"/><path d="M25 19.43A5.55 5.55 0 1 0 30.53 25 5.54 5.54 0 0 0 25 19.43zm0 9.14a3.6 3.6 0 1 1 3.6-3.6 3.6 3.6 0 0 1-3.6 3.6z"/><circle cx="30.75" cy="19.23" r="1.29"/><path d="M35.22 17.92a5.54 5.54 0 0 0-3.15-3.16 8.12 8.12 0 0 0-2.62-.5c-1.16 0-1.52-.07-4.45-.07s-3.3 0-4.45.07a8.12 8.12 0 0 0-2.62.5 5.54 5.54 0 0 0-3.15 3.16 7.76 7.76 0 0 0-.5 2.62c0 1.15-.07 1.51-.07 4.44s0 3.3.07 4.45a7.86 7.86 0 0 0 .5 2.62 5.52 5.52 0 0 0 3.15 3.15 7.91 7.91 0 0 0 2.62.54c1.16 0 1.52.07 4.45.07s3.3 0 4.45-.07a8.12 8.12 0 0 0 2.62-.5 5.54 5.54 0 0 0 3.15-3.16 7.76 7.76 0 0 0 .5-2.62c.05-1.15.07-1.51.07-4.44s0-3.3-.07-4.45a7.74 7.74 0 0 0-.5-2.65zm-1.46 11.42a6.07 6.07 0 0 1-.37 2 3.6 3.6 0 0 1-2.05 2 6 6 0 0 1-2 .38c-1.14.05-1.46.06-4.38.06s-3.22 0-4.38-.06a5.92 5.92 0 0 1-2-.38 3.53 3.53 0 0 1-2.06-2 5.71 5.71 0 0 1-.37-2c-.06-1.14-.07-1.46-.07-4.38s0-3.22.07-4.38a5.82 5.82 0 0 1 .37-2 3.53 3.53 0 0 1 2.06-2 5.67 5.67 0 0 1 2-.37c1.13-.06 1.46-.07 4.38-.07s3.22 0 4.38.07a5.71 5.71 0 0 1 2 .37 3.6 3.6 0 0 1 2.05 2 6 6 0 0 1 .37 2c.05 1.14.07 1.46.07 4.38s0 3.23-.06 4.38z"/></svg>