<svg data-name="Layer 1" xmlns="http://www.w3.org/2000/svg" viewBox="0 0 50 50"><title>Social_Icons</title><circle cx="25" cy="25" r="25" fill="#dddfe2"/><path d="M25 14.39A10.61 10.61 0 1 0 35.61 25 10.61 10.61 0 0 0 25 14.39zm4.87 15.31a.66.66 0 0 1-.91.22c-2.49-1.53-5.63-1.87-9.33-1a.66.66 0 0 1-.29-1.29c4-.92 7.51-.52 10.31 1.19a.66.66 0 0 1 .22.88zm1.3-2.9a.83.83 0 0 1-1.14.28 13.93 13.93 0 0 0-10.58-1.24.83.83 0 1 1-.45-1.58 15.44 15.44 0 0 1 11.92 1.41.82.82 0 0 1 .25 1.13zm.11-3c-3.42-2-9.07-2.22-12.33-1.23a1 1 0 0 1-.58-1.9c3.75-1.14 10-.92 13.92 1.42a1 1 0 0 1-1 1.71z" fill="#191414"/></svg>