<svg data-name="Layer 1" xmlns="http://www.w3.org/2000/svg" viewBox="0 0 50 50"><title>Social_Icons</title><circle cx="25" cy="25" r="25" fill="#dddfe2"/><path d="M25 14.21a10.79 10.79 0 0 0-3.93 20.84 10.1 10.1 0 0 1 0-3.1c.19-.84 1.26-5.36 1.26-5.36a3.94 3.94 0 0 1-.32-1.6c0-1.5.87-2.62 1.95-2.62a1.36 1.36 0 0 1 1.37 1.52 21.3 21.3 0 0 1-.9 3.59 1.57 1.57 0 0 0 1.6 1.95c1.92 0 3.39-2 3.39-4.94A4.26 4.26 0 0 0 25 20.1a4.67 4.67 0 0 0-4.87 4.68 4.16 4.16 0 0 0 .81 2.46.33.33 0 0 1 .07.31c-.08.34-.26 1.08-.3 1.23s-.16.24-.36.14c-1.35-.63-2.19-2.6-2.19-4.18 0-3.4 2.47-6.53 7.13-6.53a6.33 6.33 0 0 1 6.65 6.23c0 3.72-2.34 6.71-5.6 6.71a2.86 2.86 0 0 1-2.47-1.24s-.54 2.06-.67 2.57a12.33 12.33 0 0 1-1.34 2.83A10.79 10.79 0 1 0 25 14.21z"/></svg>