<svg data-name="Layer 1" xmlns="http://www.w3.org/2000/svg" viewBox="0 0 50 50"><title>Social_Icons</title><circle cx="25" cy="25" r="25" fill="#dddfe2"/><path d="M33.39 16.5a.25.25 0 0 0-.23-.21l-2-.15-1.5-1.49a.59.59 0 0 0-.55-.07l-.76.23c-.45-1.3-1.25-2.5-2.66-2.5h-.12a1.68 1.68 0 0 0-1.32-.76c-3.27 0-4.83 4.09-5.32 6.17l-2.29.71c-.71.22-.74.24-.83.91-.07.51-1.93 14.87-1.93 14.87l14.48 2.71 7.84-1.69s-2.8-18.6-2.81-18.73zm-5.88-1.44l-1.23.38a2.35 2.35 0 0 0 0-.27 5.91 5.91 0 0 0-.3-2c.74.12 1.22.94 1.53 1.89zm-2.41-1.7a6 6 0 0 1 .33 2.2v.14l-2.53.79a4.3 4.3 0 0 1 2.2-3.13zm-1-.92a.68.68 0 0 1 .42.14c-1.05.49-2.17 1.73-2.64 4.22l-2 .62c.57-1.9 1.89-4.98 4.24-4.98z"/><path d="M33.16 16.29l-2-.15-1.5-1.49a.35.35 0 0 0-.21-.1l-1.13 22.38 7.84-1.69S33.4 16.63 33.39 16.5a.25.25 0 0 0-.23-.21z" fill="#353535"/><path d="M25.65 20.63l-1 2.87a4.49 4.49 0 0 0-1.89-.45c-1.52 0-1.6.95-1.6 1.19 0 1.32 3.43 1.82 3.43 4.9 0 2.42-1.54 4-3.61 4a5 5 0 0 1-3.75-1.55l.66-2.2a4.76 4.76 0 0 0 2.41 1.13 1 1 0 0 0 1-1c0-1.71-2.81-1.79-2.81-4.6 0-2.37 1.7-4.66 5.14-4.66a4.18 4.18 0 0 1 2.02.37z" fill="#b2b2b2"/></svg>